<svg xmlns="http://www.w3.org/2000/svg" width="35.002" height="21.275" viewBox="0 0 35.002 21.275"><defs><style>.a{fill:#777;}</style></defs><g transform="translate(-18.283 -30.721)"><g transform="translate(18.283 30.721)"><g transform="translate(0)"><path class="a" d="M55.537,34.964,53.5,33.727l-2.035-1.237L53.5,31.254l2.034-1.237,4.069,2.474Z" transform="translate(-24.605 -21.853)"/><path class="a" d="M31.195,39.9,29.16,38.66l-2.034-1.237,2.034-1.237,2.035-1.236h0l2.035,1.236,2.035,1.237L33.229,38.66Z" transform="translate(-13.694 -24.064)"/><path class="a" d="M19.012,32.491l2.034-1.237,2.035-1.237,2.035,1.237,2.034,1.237-2.034,1.237L23.08,34.963h0l-3.1-1.886Z" transform="translate(-10.057 -21.853)"/><path class="a" d="M31.195,25.086h0l2.035,1.237,2.035,1.237L33.229,28.8l-2.035,1.237L29.16,28.8l-2.034-1.237,2.034-1.237Z" transform="translate(-13.694 -19.643)"/><path class="a" d="M39.309,34.963h0l-2.035-1.236L35.24,32.491l2.035-1.237,2.035-1.237,2.035,1.237,2.034,1.237-.966.587Z" transform="translate(-17.331 -21.853)"/><path class="a" d="M51.492,27.559,49.457,28.8l-2.034,1.237L45.389,28.8l-2.035-1.237,2.035-1.237,2.035-1.237Z" transform="translate(-20.968 -19.643)"/><path class="a" d="M41.343,23.863,39.309,25.1h0l-2.035-1.237L35.24,22.626l2.035-1.237,2.035-1.237,4.069,2.474Z" transform="translate(-17.331 -17.432)"/><path class="a" d="M31.195,15.221l4.069,2.473-2.035,1.237-2.035,1.237L29.16,18.931l-2.034-1.237Z" transform="translate(-13.694 -15.221)"/><path class="a" d="M23.08,20.153l2.035,1.237,2.034,1.237-2.034,1.236L23.08,25.1h0l-2.035-1.237-2.034-1.236Z" transform="translate(-10.057 -17.432)"/><path class="a" d="M14.966,25.085,17,26.322l2.035,1.237L17,28.8l-2.035,1.237L12.932,28.8,10.9,27.559Z" transform="translate(-6.42 -19.643)"/><path class="a" d="M2.783,32.491l4.069-2.474,2.034,1.237,2.035,1.237L8.886,33.727,6.852,34.964Z" transform="translate(-2.783 -21.853)"/><path class="a" d="M12.932,36.186l2.034-1.236h0l1.052.639,3.017,1.834-1.154.7L14.966,39.9,10.9,37.423Z" transform="translate(-6.42 -24.064)"/><path class="a" d="M21.867,40.619l1.213-.737,2.035,1.237,2.034,1.237-2.034,1.237L23.08,44.828l-4.069-2.473Z" transform="translate(-10.057 -26.275)"/><path class="a" d="M31.195,49.76l-4.069-2.473,2.034-1.237,2.035-1.237,2.035,1.237,2.035,1.237Z" transform="translate(-13.694 -28.486)"/><path class="a" d="M39.309,44.828l-2.035-1.237L35.24,42.355l2.035-1.237,2.035-1.237,1.213.737,2.856,1.736Z" transform="translate(-17.331 -26.275)"/><path class="a" d="M47.423,39.9l-2.916-1.772-1.154-.7,3.017-1.834,1.052-.639h0l2.034,1.236,2.035,1.237Z" transform="translate(-20.968 -24.064)"/></g></g></g></svg>