<svg xmlns="http://www.w3.org/2000/svg" width="20.465" height="24" viewBox="0 0 20.465 24"><defs><style>.a{fill:#777;}</style></defs><g transform="translate(-22.055 -17.225)"><g transform="translate(22.055 17.225)"><path class="a" d="M26.387,23.35h-.909V11.679a1.24,1.24,0,0,0-1.238-1.238H23.077C22.42,8.647,20.1,7.283,17.292,7.131V5.312h2.526a.48.48,0,0,0,.48-.48V3.064a.48.48,0,0,0-.48-.48H17.292V2.23a.505.505,0,0,0-1.011,0V7.157c-2.829.152-5.128,1.516-5.785,3.309H9.334A1.24,1.24,0,0,0,8.1,11.7V23.376H7.187a.625.625,0,0,0-.632.632v1.086a.625.625,0,0,0,.632.632h19.2a.625.625,0,0,0,.632-.632V24.007A.631.631,0,0,0,26.387,23.35Zm-12.96-2.476a.389.389,0,0,1-.379.379h-2a.389.389,0,0,1-.379-.379v-2a.389.389,0,0,1,.379-.379h2a.389.389,0,0,1,.379.379Zm0-5.229a.389.389,0,0,1-.379.379h-2a.389.389,0,0,1-.379-.379v-2a.389.389,0,0,1,.379-.379h2a.389.389,0,0,1,.379.379Zm4.724,7.705H15.422V18.879A.389.389,0,0,1,15.8,18.5h2a.389.389,0,0,1,.379.379V23.35Zm0-7.705a.389.389,0,0,1-.379.379h-2a.389.389,0,0,1-.379-.379v-2a.389.389,0,0,1,.379-.379h2a.389.389,0,0,1,.379.379Zm4.724,5.229a.389.389,0,0,1-.379.379h-2a.389.389,0,0,1-.379-.379v-2A.389.389,0,0,1,20.5,18.5h2a.389.389,0,0,1,.379.379Zm0-5.229a.389.389,0,0,1-.379.379h-2a.389.389,0,0,1-.379-.379v-2a.389.389,0,0,1,.379-.379h2a.389.389,0,0,1,.379.379Z" transform="translate(-6.555 -1.725)"/></g></g></svg>