<svg xmlns="http://www.w3.org/2000/svg" width="29.765" height="17.634" viewBox="0 0 29.765 17.634"><defs><style>.a{fill:#777;}</style></defs><g transform="translate(-17.846 -29.852)"><g transform="translate(17.846 29.852)"><g transform="translate(0 0)"><path class="a" d="M32.111,14.352H2.346V31.986H32.111ZM27.046,30.078H7.473A2.909,2.909,0,0,0,4.6,27.2H4.222V19.136H4.6a2.909,2.909,0,0,0,2.876-2.876H27.014a2.909,2.909,0,0,0,2.876,2.876H30.2V27.2h-.313a2.862,2.862,0,0,0-2.845,2.876Z" transform="translate(-2.346 -14.352)"/><path class="a" d="M28.058,20.769a5.924,5.924,0,1,0,4.158,1.72A5.9,5.9,0,0,0,28.058,20.769Z" transform="translate(-13.176 -17.861)"/></g></g></g></svg>