<svg xmlns="http://www.w3.org/2000/svg" width="25.853" height="20.086" viewBox="0 0 25.853 20.086"><defs><style>.a{fill:#777;}</style></defs><path class="a" d="M6.5,31.1a1.467,1.467,0,0,1-1.142-1.6l.272-2.147a3.51,3.51,0,0,1,2.2-2.854,2.976,2.976,0,0,1-.761-.978,1.835,1.835,0,0,0-.381-.054h0a3.307,3.307,0,0,1-1.169.217,3.425,3.425,0,0,1-1.169-.217h0A2.659,2.659,0,0,0,1.993,25.8l-.272,2.147a.562.562,0,0,0,.435.6c.381.082.788.136,1.2.19l.3,5.028a.743.743,0,0,0,.734.707H6.668a.684.684,0,0,0,.544-.245l-.19-3.044C6.858,31.152,6.695,31.125,6.5,31.1Z" transform="translate(-1.718 -17.752)"/><path class="a" d="M7.538,13.971a2.425,2.425,0,0,0,1.223-.326,3,3,0,0,1-.054-.489A3.435,3.435,0,0,1,9.875,10.6a2.5,2.5,0,1,0-2.337,3.37Z" transform="translate(-3.73 -8.97)"/><path class="a" d="M18.1,35.375a1.467,1.467,0,0,1-1.142-1.6l.272-2.147a3.549,3.549,0,0,1,2.2-2.854,3.179,3.179,0,0,1-.761-.951l-.408-.082a3.105,3.105,0,0,1-2.283,0,2.661,2.661,0,0,0-2.419,2.31L13.312,32.2a.539.539,0,0,0,.435.6c.381.082.788.136,1.2.19l.3,5.028a.743.743,0,0,0,.734.707h2.283A.759.759,0,0,0,18.8,38.5l-.19-3.044C18.422,35.43,18.259,35.4,18.1,35.375Z" transform="translate(-8.744 -20.345)"/><path class="a" d="M19.088,18.291a2.516,2.516,0,0,0,1.2-.3,3,3,0,0,1-.054-.489A3.435,3.435,0,0,1,21.4,14.948a2.494,2.494,0,1,0-2.31,3.343Z" transform="translate(-10.714 -11.605)"/><path class="a" d="M57.594,25.728a2.685,2.685,0,0,0-2.365-2.337h0a3.25,3.25,0,0,1-2.337,0h0a1.835,1.835,0,0,0-.381.054,3.385,3.385,0,0,1-.761.978,3.549,3.549,0,0,1,2.2,2.854l.272,2.147a1.489,1.489,0,0,1-1.114,1.6c-.163.027-.353.082-.544.109L52.4,34.181a.782.782,0,0,0,.544.245h2.283a.725.725,0,0,0,.734-.707l.3-5.028a8.451,8.451,0,0,0,1.2-.217.562.562,0,0,0,.435-.6Z" transform="translate(-32.042 -17.71)"/><path class="a" d="M52.754,13.672A2.506,2.506,0,1,0,51.612,10.6a3.435,3.435,0,0,1,1.169,2.555A1.09,1.09,0,0,1,52.754,13.672Z" transform="translate(-31.958 -8.97)"/><path class="a" d="M46.342,32.2l-.272-2.147a2.659,2.659,0,0,0-2.392-2.31,3.105,3.105,0,0,1-2.283,0,1.091,1.091,0,0,0-.408.082,2.875,2.875,0,0,1-.761.951,3.589,3.589,0,0,1,2.2,2.881L42.7,33.8a1.471,1.471,0,0,1-1.114,1.6c-.163.027-.353.082-.544.109l-.19,3.044a.759.759,0,0,0,.544.217h2.283a.749.749,0,0,0,.761-.707l.3-5.028c.408-.054.815-.109,1.2-.19A.657.657,0,0,0,46.342,32.2Z" transform="translate(-25.058 -20.345)"/><path class="a" d="M41.231,17.95a2.506,2.506,0,1,0-1.142-3.071,3.435,3.435,0,0,1,1.169,2.555A1.608,1.608,0,0,1,41.231,17.95Z" transform="translate(-24.975 -11.563)"/><path class="a" d="M32.446,36.432l-.272-2.147a2.685,2.685,0,0,0-2.365-2.337h0a3.25,3.25,0,0,1-2.337,0h0a2.633,2.633,0,0,0-2.365,2.337l-.272,2.147a.539.539,0,0,0,.435.6c.381.082.788.163,1.2.217l.272,5.028a.743.743,0,0,0,.734.707h2.283a.769.769,0,0,0,.761-.707l.3-5.028a8.451,8.451,0,0,0,1.2-.217A.518.518,0,0,0,32.446,36.432Z" transform="translate(-15.728 -22.896)"/><circle class="a" cx="2.501" cy="2.501" r="2.501" transform="translate(10.412 3.397)"/></svg>